<svg xmlns="http://www.w3.org/2000/svg" xmlns:xlink="http://www.w3.org/1999/xlink" viewBox="0,0,256,256" width="50px" height="50px" fill-rule="nonzero"><g fill="#fcc419" fill-rule="nonzero" stroke="none" stroke-width="1" stroke-linecap="butt" stroke-linejoin="miter" stroke-miterlimit="10" stroke-dasharray="" stroke-dashoffset="0" font-family="none" font-weight="none" font-size="none" text-anchor="none" style="mix-blend-mode: normal"><g transform="scale(5.12,5.12)"><path d="M22.75,8.5l-2.5,0.25l-0.44141,2.87305c-1.29931,0.44624 -2.50215,1.11739 -3.55273,1.97461l-2.75586,-0.84766l-1.5,2l1.51953,2.08984c-0.55437,0.97327 -0.98034,2.03131 -1.23047,3.16016c-3.58,0.08 -6.67852,2.15039 -8.22852,5.15039l1.42969,1.69922c1.07,-2.83 3.79977,-4.84961 7.00977,-4.84961c0.16,0 0.31906,0.0093 0.53906,0.0293l0.94141,0.07031l0.11914,-0.92969c0.66,-4.66 4.70039,-8.16992 9.40039,-8.16992c5.24,0 9.5,4.26 9.5,9.5c0,5.24 -4.26,9.5 -9.5,9.5c-0.94,0 -1.8793,-0.13992 -2.7793,-0.41992l-0.89062,-0.26953l-0.33008,0.86914c-1.11,2.88 -3.92,4.82031 -7,4.82031c-3.21145,0 -5.94956,-2.02879 -7.01562,-4.87109l1.51563,-0.37891l-4,-4.75l-1,6l1.52734,-0.38281c1.29277,3.71333 4.82553,6.38281 8.97266,6.38281c3.6,0 6.91,-2.0893 8.5,-5.2793c0.82,0.19 1.66,0.2793 2.5,0.2793c6.34,0 11.5,-5.16 11.5,-11.5c0,-3.29993 -1.40601,-6.27173 -3.64062,-8.37109l0.39063,-3.12891l-2.25,-1l-1.80469,1.80469c-1.1495,-0.45274 -2.38744,-0.72168 -3.68164,-0.7793zM37.5,13c-1.18,0 -2.32039,0.21086 -3.40039,0.63086c-0.11,0.04 -0.22031,0.07867 -0.32031,0.13867c0.45,0.52 0.8507,1.08016 1.2207,1.66016c0.79,-0.28 1.63,-0.42969 2.5,-0.42969c3.29891,0 6.09599,2.13771 7.09375,5.10156l-1.59375,0.39844l4,4.75l1,-6l-1.45117,0.36328c-1.22351,-3.8286 -4.81265,-6.61328 -9.04883,-6.61328zM44.43945,25.33008c-1.11,2.74 -3.79945,4.66992 -6.93945,4.66992c-0.12,0 -0.59961,0.00977 -0.59961,0.00977c-0.26,-0.02 -0.88086,0 -0.88086,0c0,0 -0.08914,0.58031 -0.11914,0.82031c-0.66,4.66 -4.70039,8.16992 -9.40039,8.16992c-2.02,0 -3.93953,-0.61977 -5.51953,-1.75977c-0.45,0.5 -0.95023,0.95914 -1.49023,1.36914c1.98,1.55 4.41977,2.39063 7.00977,2.39063c5.39,0 10.0607,-3.81 11.2207,-9c3.52,-0.08 6.56867,-2.08 8.13867,-5z"></path></g></g></svg>